<svg xmlns="http://www.w3.org/2000/svg" width="33.598" height="37.701" viewBox="0 0 33.598 37.701"><defs><style>.a{fill:#8d909f;}.b{fill:#7e8292;}.c{fill:#ffc850;}.d{fill:#feb644;}.e{fill:#f25c5c;}.f{fill:#e54a4a;}.g{fill:#e4eaf8;}.h{fill:#fda537;}</style></defs><path class="a" d="M208.364,3.654A8.5,8.5,0,0,1,209.8,3.8V1.155A1.155,1.155,0,0,0,208.644,0h-.857a1.155,1.155,0,0,0-1.155,1.155V3.8a8.73,8.73,0,0,1,1.732-.143Zm0,0" transform="translate(-191.417 0)"/><path class="b" d="M208.662,1.155a1.153,1.153,0,0,1,.568-.993A1.149,1.149,0,0,0,208.644,0h-.857a1.155,1.155,0,0,0-1.155,1.155V3.8a8.728,8.728,0,0,1,1.732-.143c.1,0,.2.006.3.011Zm0,0" transform="translate(-191.417 0)"/><path class="c" d="M155.969,439.938a5.314,5.314,0,0,0,10.628,0Zm0,0" transform="translate(-144.484 -407.543)"/><path class="d" d="M158.245,439.938h-2.276a5.364,5.364,0,0,0,5.314,5.306,5.229,5.229,0,0,0,1.138-.126A5.392,5.392,0,0,1,158.245,439.938Zm0,0" transform="translate(-144.484 -407.543)"/><path class="c" d="M57.723,58.787c-.012-.406-.01-.454-.01-1.842a8.68,8.68,0,1,0-17.36,0c0,1.381,0,1.434-.009,1.842A19.4,19.4,0,0,1,34.8,71.816H63.27A19.4,19.4,0,0,1,57.723,58.787Zm0,0" transform="translate(-32.235 -44.637)"/><path class="d" d="M42.619,58.791c.012-.407.009-.461.009-1.842a8.734,8.734,0,0,1,7.551-8.685,8.59,8.59,0,0,0-2.033-.029,8.731,8.731,0,0,0-7.794,8.714c0,1.381,0,1.434-.009,1.842A19.4,19.4,0,0,1,34.8,71.82h2.276a19.4,19.4,0,0,0,5.547-13.029Zm0,0" transform="translate(-32.234 -44.641)"/><path class="e" d="M273.5,38.491a5.881,5.881,0,1,1-5.881-5.881A5.881,5.881,0,0,1,273.5,38.491Zm0,0" transform="translate(-242.465 -30.209)"/><path class="f" d="M264.014,38.491a5.882,5.882,0,0,1,4.743-5.77,5.881,5.881,0,1,0,0,11.54A5.882,5.882,0,0,1,264.014,38.491Zm0,0" transform="translate(-242.465 -30.209)"/><path class="g" d="M326.5,81.823a.569.569,0,0,1-.569-.569v-4.3h-.062a.569.569,0,1,1,0-1.138h.631a.569.569,0,0,1,.569.569v4.864A.569.569,0,0,1,326.5,81.823Zm0,0" transform="translate(-301.35 -70.237)"/><path class="d" d="M31.37,367.59H2.227A2.234,2.234,0,0,0,0,369.817v.97a2.234,2.234,0,0,0,2.227,2.228H31.37a2.234,2.234,0,0,0,2.227-2.228v-.97A2.234,2.234,0,0,0,31.37,367.59Zm0,0" transform="translate(0 -340.522)"/><path class="h" d="M31.37,390.551H2.227A2.236,2.236,0,0,1,.1,388.976a2.206,2.206,0,0,0-.1.653v.97a2.234,2.234,0,0,0,2.227,2.227H31.37A2.234,2.234,0,0,0,33.6,390.6v-.97a2.206,2.206,0,0,0-.1-.653,2.236,2.236,0,0,1-2.129,1.574Zm0,0" transform="translate(0 -360.334)"/></svg>